<svg width="512" height="512" viewBox="0 0 512 512" fill="none" xmlns="http://www.w3.org/2000/svg">
<rect width="512" height="512" rx="115" fill="#121214"/>
<mask id="path-2-inside-1_1_2" fill="white">
<path d="M375.599 306.452C363.422 333.699 342.306 355.971 315.747 369.582C289.187 383.193 258.776 387.328 229.547 381.301C200.318 375.275 174.022 359.449 155.013 336.442C136.003 313.435 125.419 284.627 125.012 254.786C124.605 224.945 134.4 195.859 152.775 172.343C171.15 148.826 197.004 132.289 226.058 125.468C255.113 118.646 285.625 121.95 312.546 134.832C339.466 147.714 361.181 169.402 374.097 196.307L338.683 213.308C329.64 194.471 314.437 179.287 295.589 170.268C276.741 161.249 255.379 158.935 235.037 163.711C214.696 168.487 196.594 180.065 183.729 196.53C170.864 212.994 164.007 233.358 164.292 254.251C164.577 275.143 171.987 295.312 185.296 311.42C198.605 327.528 217.015 338.608 237.48 342.827C257.944 347.047 279.235 344.152 297.83 334.622C316.425 325.092 331.209 309.499 339.734 290.423L375.599 306.452Z"/>
</mask>
<path d="M375.599 306.452C363.422 333.699 342.306 355.971 315.747 369.582C289.187 383.193 258.776 387.328 229.547 381.301C200.318 375.275 174.022 359.449 155.013 336.442C136.003 313.435 125.419 284.627 125.012 254.786C124.605 224.945 134.4 195.859 152.775 172.343C171.15 148.826 197.004 132.289 226.058 125.468C255.113 118.646 285.625 121.95 312.546 134.832C339.466 147.714 361.181 169.402 374.097 196.307L338.683 213.308C329.64 194.471 314.437 179.287 295.589 170.268C276.741 161.249 255.379 158.935 235.037 163.711C214.696 168.487 196.594 180.065 183.729 196.53C170.864 212.994 164.007 233.358 164.292 254.251C164.577 275.143 171.987 295.312 185.296 311.42C198.605 327.528 217.015 338.608 237.48 342.827C257.944 347.047 279.235 344.152 297.83 334.622C316.425 325.092 331.209 309.499 339.734 290.423L375.599 306.452Z" stroke="#FACC15" stroke-width="80" mask="url(#path-2-inside-1_1_2)"/>
<path d="M142 75L260.351 389L370 75" stroke="#121214" stroke-width="56"/>
<path d="M142 75L260.351 389L370 75" stroke="#FACC15" stroke-width="40"/>
</svg>
